<svg width="40" height="40" viewBox="0 0 40 40" fill="none" xmlns="http://www.w3.org/2000/svg">
<path d="M28.8633 0.128333C30.8933 0.221667 32.2967 0.52 33.5933 1.02333C34.8228 1.48302 35.9359 2.20799 36.8533 3.14667C37.792 4.06414 38.517 5.1772 38.9767 6.40667C39.48 7.705 39.7783 9.10667 39.8717 11.1367C39.9867 13.6533 40 14.54 40 20C40 25.46 39.9867 26.3467 39.8717 28.8633C39.7783 30.8933 39.48 32.2967 38.9767 33.595C38.5168 34.8239 37.7918 35.9363 36.8533 36.8533C35.9359 37.7921 34.8228 38.517 33.5933 38.9767C32.295 39.48 30.8933 39.7783 28.8633 39.8717C26.3467 39.9867 25.4617 40 20 40C14.5383 40 13.6517 39.9867 11.1367 39.8717C9.10667 39.7783 7.70333 39.48 6.405 38.9767C5.17611 38.5168 4.06363 37.7919 3.14667 36.8533C2.20799 35.9359 1.48302 34.8228 1.02333 33.5933C0.52 32.295 0.221667 30.8933 0.128333 28.8633C0.0133333 26.35 0 25.4633 0 20C0 14.5383 0.0133333 13.65 0.128333 11.1367C0.221667 9.10667 0.52 7.70333 1.02333 6.40667C1.48302 5.1772 2.20799 4.06414 3.14667 3.14667C4.06366 2.20819 5.17613 1.48323 6.405 1.02333C7.705 0.52 9.10667 0.221667 11.1367 0.128333C13.65 0.0133333 14.5367 0 20 0C25.4617 0 26.35 0.0133333 28.8633 0.128333ZM20 4.445C14.6 4.445 13.7733 4.45667 11.3383 4.56833C9.79333 4.63833 8.86667 4.835 8.015 5.16667C7.29 5.45 6.82833 5.75 6.28833 6.28833C5.74833 6.82833 5.44833 7.29 5.16667 8.015C4.83667 8.865 4.63833 9.79333 4.56833 11.3383C4.45667 13.7733 4.445 14.6 4.445 20C4.445 25.4 4.45667 26.2267 4.56833 28.6617C4.63833 30.2067 4.835 31.1333 5.16667 31.9833C5.45 32.71 5.75 33.1717 6.28833 33.7117C6.82833 34.2517 7.29 34.5517 8.015 34.8333C8.865 35.1633 9.79333 35.3617 11.3383 35.4317C13.775 35.5433 14.6017 35.555 20 35.555C25.4 35.555 26.225 35.5433 28.6617 35.4317C30.2067 35.3617 31.1333 35.165 31.985 34.8333C32.71 34.55 33.1717 34.25 33.7117 33.7117C34.2517 33.1717 34.5517 32.71 34.8333 31.985C35.1633 31.135 35.3617 30.2067 35.4317 28.6617C35.5433 26.225 35.555 25.3983 35.555 20C35.555 14.6017 35.5433 13.775 35.4317 11.3383C35.3617 9.79333 35.165 8.86667 34.8333 8.01667C34.5977 7.3618 34.2138 6.77029 33.7117 6.28833C33.2297 5.78618 32.6382 5.40229 31.9833 5.16667C31.1333 4.83667 30.205 4.63833 28.66 4.56833C26.225 4.45667 25.3983 4.445 19.9983 4.445H20ZM20 30.37C17.2497 30.37 14.6121 29.2774 12.6673 27.3327C10.7225 25.3879 9.63 22.7503 9.63 20C9.63 17.2497 10.7225 14.6121 12.6673 12.6673C14.6121 10.7225 17.2497 9.63 20 9.63C22.7503 9.63 25.3879 10.7225 27.3327 12.6673C29.2774 14.6121 30.37 17.2497 30.37 20C30.37 22.7503 29.2774 25.3879 27.3327 27.3327C25.3879 29.2774 22.7503 30.37 20 30.37ZM20 25.9267C21.5718 25.9267 23.0793 25.3023 24.1908 24.1908C25.3023 23.0793 25.9267 21.5718 25.9267 20C25.9267 18.4282 25.3023 16.9207 24.1908 15.8092C23.0793 14.6977 21.5718 14.0733 20 14.0733C18.4282 14.0733 16.9207 14.6977 15.8092 15.8092C14.6977 16.9207 14.0733 18.4282 14.0733 20C14.0733 21.5718 14.6977 23.0793 15.8092 24.1908C16.9207 25.3023 18.4282 25.9267 20 25.9267ZM30.37 11.8517C29.7806 11.8517 29.2153 11.6175 28.7985 11.2007C28.3817 10.7839 28.1475 10.2186 28.1475 9.62917C28.1475 9.03972 28.3817 8.47442 28.7985 8.05762C29.2153 7.64082 29.7806 7.40667 30.37 7.40667C30.9594 7.40667 31.5247 7.64082 31.9415 8.05762C32.3583 8.47442 32.5925 9.03972 32.5925 9.62917C32.5925 10.2186 32.3583 10.7839 31.9415 11.2007C31.5247 11.6175 30.9594 11.8517 30.37 11.8517Z" fill="white"/>
</svg>
