<svg width="40" height="40" viewBox="0 0 40 40" fill="none" xmlns="http://www.w3.org/2000/svg">
<path d="M36 0H4C2.93949 0.00116464 1.92275 0.422966 1.17286 1.17286C0.422966 1.92275 0.00116464 2.93949 0 4V36C0.00121747 37.0605 0.423035 38.0772 1.17292 38.8271C1.9228 39.577 2.93951 39.9988 4 40H36C37.0605 39.9988 38.0772 39.577 38.8271 38.8271C39.577 38.0772 39.9988 37.0605 40 36V4C39.9988 2.93949 39.577 1.92275 38.8271 1.17286C38.0773 0.422966 37.0605 0.00116464 36 0ZM35.2 35.2H4.8V4.8H35.2V35.2ZM16.8 29.6002V18.4002C16.7997 17.9011 16.955 17.4144 17.2444 17.0078C17.5338 16.6012 17.9429 16.295 18.4145 16.1319C18.8862 15.9688 19.397 15.9569 19.8757 16.0978C20.3545 16.2388 20.7774 16.5255 21.0854 16.9182C22.3042 16.2776 23.6679 15.9626 25.0442 16.0038C26.4205 16.045 27.7629 16.441 28.9412 17.1533C30.1196 17.8657 31.094 18.8703 31.77 20.0699C32.4461 21.2694 32.8009 22.6233 32.8 24.0002V29.6002C32.8 30.2367 32.5471 30.8472 32.0971 31.2973C31.647 31.7473 31.0365 32.0002 30.4 32.0002C29.7635 32.0002 29.153 31.7473 28.7029 31.2973C28.2529 30.8472 28 30.2367 28 29.6002V24.0002C28 23.1515 27.6629 22.3376 27.0627 21.7375C26.4626 21.1373 25.6487 20.8002 24.8 20.8002C23.9513 20.8002 23.1374 21.1373 22.5373 21.7375C21.9371 22.3376 21.6 23.1515 21.6 24.0002V29.6002C21.6 30.2367 21.3471 30.8472 20.8971 31.2973C20.447 31.7473 19.8365 32.0002 19.2 32.0002C18.5635 32.0002 17.953 31.7473 17.5029 31.2973C17.0529 30.8472 16.8 30.2367 16.8 29.6002ZM13.6 18.4002V29.6002C13.6 30.2367 13.3471 30.8472 12.8971 31.2973C12.447 31.7473 11.8365 32.0002 11.2 32.0002C10.5635 32.0002 9.95303 31.7473 9.50294 31.2973C9.05286 30.8472 8.8 30.2367 8.8 29.6002V18.4002C8.8 17.7637 9.05286 17.1532 9.50294 16.7031C9.95303 16.2531 10.5635 16.0002 11.2 16.0002C11.8365 16.0002 12.447 16.2531 12.8971 16.7031C13.3471 17.1532 13.6 17.7637 13.6 18.4002ZM8 10.4C8 9.7671 8.18768 9.14841 8.5393 8.62218C8.89092 8.09594 9.39069 7.68579 9.97541 7.44359C10.5601 7.20139 11.2036 7.13801 11.8243 7.26149C12.445 7.38496 13.0152 7.68973 13.4627 8.13726C13.9103 8.58479 14.215 9.15497 14.3385 9.77571C14.462 10.3965 14.3986 11.0399 14.1564 11.6246C13.9142 12.2093 13.5041 12.7091 12.9778 13.0607C12.4516 13.4123 11.8329 13.6 11.2 13.6C10.3516 13.599 9.53822 13.2616 8.93831 12.6617C8.3384 12.0618 8.00095 11.2484 8 10.4Z" fill="white"/>
</svg>
