<svg width="40" height="40" viewBox="0 0 40 40" fill="none" xmlns="http://www.w3.org/2000/svg">
<path d="M16.3599 30.016C16.5999 30.016 16.7819 30.008 16.9019 29.992C17.0427 29.9635 17.1696 29.8881 17.2619 29.778C17.3819 29.652 17.4419 29.47 17.4419 29.23L17.4339 28.116C17.4279 27.406 17.4259 26.842 17.4259 26.428L17.0499 26.494C16.7491 26.5414 16.4444 26.5601 16.1399 26.55C15.7575 26.5432 15.3762 26.5051 14.9999 26.436C14.6007 26.3616 14.2249 26.1929 13.9039 25.944C13.5675 25.6895 13.3163 25.3386 13.1839 24.938L13.0199 24.56C12.882 24.2623 12.7087 23.9823 12.5039 23.726C12.32 23.4632 12.075 23.249 11.7899 23.102L11.6759 23.022C11.5974 22.9642 11.5262 22.897 11.4639 22.822C11.4035 22.7538 11.3536 22.677 11.3159 22.594C11.2839 22.518 11.3099 22.454 11.3959 22.406C11.5469 22.3453 11.7097 22.32 11.8719 22.332L12.1999 22.382C12.4199 22.424 12.6899 22.556 13.0119 22.774C13.3319 22.994 13.5979 23.276 13.8059 23.626C14.0579 24.074 14.3599 24.416 14.7159 24.65C15.0302 24.8716 15.4035 24.9942 15.7879 25.002C16.1479 25.002 16.4599 24.976 16.7219 24.922C16.977 24.8691 17.2247 24.7859 17.4599 24.674C17.5579 23.944 17.8239 23.38 18.2599 22.988C17.6939 22.932 17.133 22.8331 16.5819 22.692C16.0439 22.5437 15.5266 22.3287 15.0419 22.052C14.5344 21.7767 14.0859 21.4043 13.7219 20.956C13.3739 20.518 13.0879 19.946 12.8619 19.236C12.6263 18.4384 12.5137 17.6096 12.5279 16.778C12.5279 15.458 12.9599 14.332 13.8219 13.404C13.4179 12.41 13.4559 11.296 13.9359 10.062C14.2539 9.96201 14.7239 10.036 15.3459 10.282C15.9679 10.528 16.4259 10.738 16.7139 10.914C17.0039 11.088 17.2339 11.234 17.4099 11.354C18.4343 11.0695 19.4928 10.9269 20.5559 10.93C21.6359 10.93 22.6859 11.07 23.7019 11.356L24.3219 10.962C24.7499 10.702 25.2519 10.46 25.8299 10.242C26.4099 10.022 26.8519 9.96201 27.1579 10.062C27.6499 11.296 27.6939 12.41 27.2879 13.402C28.1519 14.332 28.5839 15.456 28.5839 16.778C28.5839 17.706 28.4719 18.528 28.2479 19.244C28.0239 19.96 27.7339 20.532 27.3799 20.964C27.01 21.4079 26.5594 21.7777 26.0519 22.054C25.5673 22.3308 25.05 22.5458 24.5119 22.694C23.9602 22.8345 23.3986 22.9328 22.8319 22.988C23.3999 23.478 23.6839 24.254 23.6839 25.314V29.228C23.6839 29.414 23.7119 29.564 23.7659 29.68C23.7913 29.7353 23.8276 29.7848 23.8727 29.8257C23.9177 29.8666 23.9705 29.898 24.0279 29.918C24.1479 29.96 24.2559 29.988 24.3479 29.998C24.4419 30.01 24.5739 30.016 24.7479 30.016H16.3619H16.3599Z" fill="black"/>
<path d="M8 4C6.93913 4 5.92172 4.42143 5.17157 5.17157C4.42143 5.92172 4 6.93913 4 8V32C4 33.0609 4.42143 34.0783 5.17157 34.8284C5.92172 35.5786 6.93913 36 8 36H32C33.0609 36 34.0783 35.5786 34.8284 34.8284C35.5786 34.0783 36 33.0609 36 32V8C36 6.93913 35.5786 5.92172 34.8284 5.17157C34.0783 4.42143 33.0609 4 32 4H8ZM8 0H32C34.1217 0 36.1566 0.842855 37.6569 2.34315C39.1571 3.84344 40 5.87827 40 8V32C40 34.1217 39.1571 36.1566 37.6569 37.6569C36.1566 39.1571 34.1217 40 32 40H8C5.87827 40 3.84344 39.1571 2.34315 37.6569C0.842855 36.1566 0 34.1217 0 32V8C0 5.87827 0.842855 3.84344 2.34315 2.34315C3.84344 0.842855 5.87827 0 8 0Z" fill="black"/>
</svg>
